<?xml version="1.0" encoding="utf-8"?>
<!-- Generator: Adobe Illustrator 21.1.0, SVG Export Plug-In . SVG Version: 6.00 Build 0)  -->
<svg version="1.1" id="Capa_1" xmlns="http://www.w3.org/2000/svg" xmlns:xlink="http://www.w3.org/1999/xlink" x="0px" y="0px"
	 viewBox="0 0 640 480" style="enable-background:new 0 0 640 480;" xml:space="preserve">
<style type="text/css">
	.st0{fill:#85D39F;}
	.st1{fill:#93B6D9;}
	.st2{fill:#B39C80;}
	.st3{fill:#A57644;}
	.st4{fill:#E05858;}
	.st5{fill:#771E1E;}
	.st6{fill:#562525;}
	.st7{fill:#1F6899;}
	.st8{fill:#2988D6;}
	.st9{fill:#5C916C;}
	.st10{fill:#604329;}
	.st11{font-family:'Rockwell-ExtraBold';}
	.st12{font-size:77.3693px;}
	.st13{font-size:83.027px;}
	.st14{fill:#3A0F0F;}
	.st15{fill:#3D5E46;}
</style>
<path class="st0" d="M470,244.5"/>
<g>
	<path class="st1" d="M7.8,414.8l19-4c0,0,4.1,0.6,2.9-4c-1.2-4.6-1.4-5.4-1.4-5.4l0.2-1.6l1.2-5.8h-2.3v-3.5l1.2-1.2l-1-1.9l0-7.6
		l1-15.9l0-28.8l0-11.8l-0.6-9l0.9-12.7l-0.3-9.2l1.4-13.8l-0.7-12.8l1.7-23.8l-0.2-5.2l-5.7-4.3l-12.7-8.1l-2.3-2.3l-2.2-0.6
		l-3.6,16.7L7.8,414.8z"/>
	<path class="st2" d="M374,404c0,0,0-4.6-0.9-8.2s0.9-6.4,0.9-6.4v-7.3l-0.9-2.7l0.9-4.6l0.9-8.2v-11.8v-34.6v-3.6l0.9-1.8l-0.9-9.1
		l-0.9-10.9l-0.9-22.8l1.8-47.4l-12.7-12.7l-10,13.7l0.9,92l-0.9,77.4l-0.9,8.2l7.3,3.6L374,404z"/>
	<path class="st3" d="M359.4,399.5v-17.3l0.9-17.3l1.8-52.8v-33.7v-31.9l-0.9-24.6l0.9-10l-10,13.7l0.9,57.6V302
		c0,0-0.9,5.5-0.9,6.4c0,0.9,1.8,24.6,1.8,24.6l-1.8,10l-0.9,30.1l0.5,28.4l-0.5,1.7l7.3,3.6L359.4,399.5z"/>
	<path class="st4" d="M389.6,197.9c0,0,0.1,5.2,1.2,9.3c1.1,4.1-1,7.3-1,7.3l0.1,8.3l1.1,3.1l-1,5.2l-1,9.3l0.2,13.4l0.5,39.3
		l0.1,4.1l-1.1,2.1l1.2,10.3l1.2,12.4l1.4,25.8l-1.5,53.8l15.4,14.3l11.7-15.7l-2.4-104.4l-0.1-87.9l1-9.3l-8.7-4L389.6,197.9z"/>
	<path class="st5" d="M405.2,401.9v-15.8V330v-73.7l1.8-29.8l-3.6-31l3.6-0.6l11,3.5l-1.8,68.5l0.5,4.4l-1.4,7.5c0,0,0,6.6,0.5,9.7
		c0.5,3.1,0.1,18,0.3,19.3c0.2,1.3,2,46.5,2,46.5v47.8l-12.9,14V401.9z"/>
	<path class="st5" d="M40.1,397.5l1.2-34.6h15l11.5,27.7c0,0,1.2-32.3,2.3-31.1c1.2,1.2,13.8,1.2,13.8,1.2l-3.5,38.1l-1.2,5.8H63.1
		L55,384.8l-4.6,18.5L40.1,397.5z"/>
	<path class="st6" d="M37.7,397.5l1.2-34.6h15l11.5,27.7c0,0,1.2-32.3,2.3-31.1c1.2,1.2,13.8,1.2,13.8,1.2l-3.5,38.1l-1.2,5.8H60.8
		l-8.1-19.6l-4.6,18.5L37.7,397.5z"/>
	<path class="st5" d="M42.4,397.5l1.2-34.6h15L70,390.6c0,0,1.2-32.3,2.3-31.1c1.2,1.2,13.8,1.2,13.8,1.2l-3.5,38.1l-1.2,5.8H65.4
		l-8.1-19.6l-4.6,18.5L42.4,397.5z"/>
	<path class="st5" d="M508.6,391.8l1.3-40.4h17.5l13.5,32.3c0,0,1.3-37.7,2.7-36.3c1.3,1.3,16.1,1.3,16.1,1.3l-4,44.4l-1.3,6.7
		h-18.8l-9.4-22.9l-5.4,21.5L508.6,391.8z"/>
	<path class="st7" d="M505.9,391.8l1.3-40.4h17.5l13.5,32.3c0,0,1.3-37.7,2.7-36.3c1.3,1.3,16.1,1.3,16.1,1.3l-4,44.4l-1.3,6.7
		h-18.8l-9.4-22.9l-5.4,21.5L505.9,391.8z"/>
	<path class="st8" d="M511.3,391.8l1.3-40.4h17.5l13.5,32.3c0,0,1.3-37.7,2.7-36.3c1.3,1.3,16.1,1.3,16.1,1.3l-4,44.4l-1.3,6.7
		h-18.8l-9.4-22.9l-5.4,21.5L511.3,391.8z"/>
	<polygon class="st9" points="104.6,405.6 108.1,349.1 134.6,349.1 148.5,382.5 156.5,349.1 181.9,349.1 187.7,405.6 165.7,405.6 
		161.1,391.8 148.5,405.6 138.1,392.9 133.5,405.6 	"/>
	<polygon class="st0" points="94.3,405.6 97.7,349.1 124.2,349.1 138.1,382.5 146.1,349.1 171.5,349.1 177.3,405.6 155.4,405.6 
		150.8,391.8 138.1,405.6 127.7,392.9 123.1,405.6 	"/>
	<path class="st4" d="M407,202.9l0.3,19.6l-0.8,19.7l-1.4,60l0.5,38.3l0.5,36.2l1.4,27.9l-0.9,11.4l11.7-15.7l-1.9-65.4l-0.3-21.5
		c0,0,1-6.2,1-7.2s-2.5-27.9-2.5-27.9l2-11.4l0.6-34.1l-1-32.2l0.5-1.9l-8.7-4L407,202.9z"/>
	<path class="st3" d="M195.7,386"/>
	<polygon class="st8" points="2,412.5 2,387.1 2,345.6 4.3,321.4 2,305.3 2,253.4 4.3,238.4 7.8,414.8 	"/>
	<text transform="matrix(1.1833 0 0 1 187.6553 404.8154)" class="st10 st11 st12">O</text>
	<text transform="matrix(1 0 0 1 187.6582 407.9023)" class="st3 st11 st13">O</text>
	<text transform="matrix(1 0 0 1 432.9912 399.54)" class="st14 st11 st13">A</text>
	<text transform="matrix(1 0 0 1 426.0723 399.54)" class="st5 st11 st13">A</text>
	<text transform="matrix(1 0 0 1 569.3516 399.542)" class="st15 st11 st13">D</text>
	<text transform="matrix(1 0 0 1 560.126 399.542)" class="st9 st11 st13">D</text>
	<text transform="matrix(1 0 0 1 268.9546 406.749)" class="st5 st11 st13">B</text>
	<text transform="matrix(1 0 0 1 264.3413 405.5957)" class="st4 st11 st13">B</text>
</g>
</svg>
